#!OML:ASF F:\VICON\USERDATA\INSTALL\rory3\rory3.ASF
:FULLY-SPECIFIED
:DEGREES
98
root -5.007475939324994 17.99517279251388 -4.077870334025682 -169.77911732951492 -10.421522091846064 -177.24883939405797
lfemur -28.267835139744786 -18.49515964896278 -12.403802261151965
ltibia 28.85181458267613
lfoot 28.255357462568703 -42.90648716853126
ltoes 50.04393669193098
rfemur 19.676228862373748 -10.963610702425076 23.780918339381216
rtibia 7.4006430134819645
rfoot 36.54248464693939 -34.51515894580483
rtoes 28.56626565039602
lowerback -12.60258816564709 16.66141584931374 15.45409918963362
upperback -17.161592687479107 19.73195217902211 -0.07548094989256793
thorax -7.0478699294340945 7.814439014990706 -6.348803163246641
lowerneck -10.110385760394676 -20.393552887806575 -5.2843315458612174
upperneck 13.398594239052251 -27.76240222053939 2.522560568659359
head 6.500287763990814 -13.569911129410505 -0.7819628653772679
lclavicle -5.102671502640225e-15 -1.0272435049990575e-14
lhumerus 70.48594919890391 30.49756725320671 41.73446242323868
lradius 69.79587138229292
lwrist 18.380161866377573
lhand -24.169058331119935 13.969189794513625
lfingers 7.125020000000001
lthumb -177.68308934230816 -24.667676270064618
rclavicle -5.102671502640224e-15 -1.0272435049990575e-14
rhumerus 115.96608168936936 24.822580965830245 -54.099444646503635
rradius 68.77265235112006
rwrist -0.09453105582950982
rhand -46.553018534758436 24.116678429269616
rfingers 7.125020000000001
rthumb -19.288633432478232 -4.920914474306443
99
root -4.981949020823542 18.005037557286983 -4.0314173040896994 -170.0845551799774 -9.697639322648989 -177.5202291336126
lfemur -28.377104097420606 -18.26063761528305 -12.300909049963082
ltibia 28.602350362438692
lfoot 28.04930763576433 -42.739911277941225
ltoes 50.08503934233755
rfemur 19.28829135803982 -10.639385643103697 23.77791635241369
rtibia 8.13559929286701
rfoot 36.16147812846632 -34.14899644570129
rtoes 27.764239147378987
lowerback -12.335479922527819 16.110174601953677 15.501565700929882
upperback -16.601856818760186 19.499467013705175 0.24459346254129666
thorax -6.823053464002038 7.928230207366687 -6.136685818223675
lowerneck -10.604250375863195 -19.992938201699193 -4.910006077134941
upperneck 13.453863243356443 -27.18521206395488 2.2709026817974802
head 6.492841444893408 -13.284195085720935 -0.8678988633451192
lclavicle -4.975481900282991e-15 -1.0167678444364296e-14
lhumerus 70.11139736013395 28.693942216557957 40.68287180603498
lradius 67.25087857891074
lwrist 20.031726490762214
lhand -23.077301582227896 14.074009949033165
lfingers 7.125020000000001
lthumb -176.63129404023988 -21.239067819798663
rclavicle -4.975481900282991e-15 -1.0167678444364296e-14
rhumerus 114.68236891259846 24.66227498921703 -54.496769778298
rradius 66.31253297788402
rwrist -1.9949186493812512
rhand -45.60249050908881 23.30879828441935
rfingers 7.125020000000001
rthumb -18.373641647419266 -5.778924835857835
100
root -4.959893114673189 18.014410149297646 -3.9870322998723142 -170.57143503098422 -9.042115970355411 -177.95887525612795
lfemur -28.533748895543184 -18.0760383460656 -12.210823247919592
ltibia 28.332265349663423
lfoot 27.603512178344623 -42.66195303651635
ltoes 49.695278492030326
rfemur 18.65257779980601 -10.314723900036428 23.72444972420609
rtibia 8.923143931735659
rfoot 35.58269984046478 -33.85977169877645
rtoes 26.70443941227256
lowerback -12.047999891115843 15.448125963962461 15.435210898675486
upperback -16.061715056803813 19.13491423477887 0.5520141190236145
thorax -6.626359811096806 7.988220729147155 -5.930293440923484
lowerneck -11.128486533376297 -19.577929082522644 -4.5309072900133565
upperneck 13.43704783425314 -26.5950829434935 1.9659136601322
head 6.47471573389798 -12.991398400543614 -0.9562448977706154
lclavicle -5.267996310643673e-15 -1.042275887052697e-14
lhumerus 69.71617331212659 26.436316132958552 39.78299501285119
lradius 64.70261868405386
lwrist 21.42782612914936
lhand -22.15893988899567 14.040285955148954
lfingers 7.125020000000001
lthumb -175.74613268942147 -19.100826313729797
rclavicle -5.267996310643673e-15 -1.042275887052697e-14
rhumerus 113.1307750829661 24.395110060398437 -54.934792842511676
rradius 63.802040107216456
rwrist -3.886170885859265
rhand -44.94182153211825 22.556809641141854
rfingers 7.125020000000001
rthumb -17.737145652612075 -6.5715835699841065
101
root -4.93137068858176 18.026465553197674 -3.913357744313457 -170.31419412335822 -7.999894886198611 -177.74261757872225
lfemur -28.607842214586057 -17.74559010232127 -12.059221452836347
ltibia 28.113313796003414
lfoot 27.214513806239204 -42.40549080691301
ltoes 49.448041058209895
rfemur 18.162404912824236 -9.906380107942649 23.67716145983984
rtibia 9.7707368557609
rfoot 35.06913185014068 -33.37509224767222
rtoes 25.95189510510609
lowerback -11.700354063291476 14.892244499793424 15.445184425416635
upperback -15.444668868475887 18.874661052817807 0.9003786515010813
thorax -6.386773726202789 8.084614872296273 -5.677907594965314
lowerneck -11.641859838856684 -18.98597817823715 -4.117734907057742
upperneck 13.480787080467252 -25.764518193383942 1.7604757051927313
head 6.488878946872211 -12.584605979270298 -1.0278598122839342
lclavicle -4.854965204096192e-15 -1.0072434879030176e-14
lhumerus 69.58778778543645 24.381919447791397 39.65578717867918
lradius 62.523198835811726
lwrist 22.796774152175356
lhand -21.32359797354836 14.296348047686768
lfingers 7.125020000000001
lthumb -174.94100911755174 -15.764642099407709
rclavicle -4.854965204096192e-15 -1.0072434879030176e-14
rhumerus 111.83872846286641 24.353765119692014 -55.16811002958465
rradius 61.66134499295171
rwrist -5.278634512591648
rhand -44.17503850258669 22.01125928473258
rfingers 7.125020000000001
rthumb -16.998351293523857 -7.156291698951783
102
root -4.9119569653931245 18.035854775138034 -3.8717886909429793 -171.18409705609992 -7.418080036183284 -178.63469625820886
lfemur -28.81714067934222 -17.63335520373048 -12.05805450279418
ltibia 27.81362408141248
lfoot 26.542707753218792 -42.52220635810226
ltoes 48.618929387866444
rfemur 17.355510727368873 -9.60830285061932 23.49743197072909
rtibia 10.534782865567003
rfoot 34.27477887554961 -33.270580834472334
rtoes 25.089964095622296
lowerback -11.390294190982326 14.227825346180662 15.287854998058652
upperback -14.944176299975931 18.41619354295244 1.1731046058068126
thorax -6.227687681852011 8.06627990477657 -5.492692866747527
lowerneck -12.175438327309145 -18.598171132144405 -3.753967668011512
upperneck 13.329994565553573 -25.226980894034217 1.4901295030419277
head 6.451288353406411 -12.311976533848904 -1.104538021985754
lclavicle -5.4956751799075434e-15 -1.0624774987347089e-14
lhumerus 69.05511524423422 21.72016500023549 39.532936911288246
lradius 60.31076326078436
lwrist 23.869763081323235
lhand -20.686393130247218 14.300185720683476
lfingers 7.125020000000001
lthumb -174.3264671499478 -13.449803537707396
rclavicle -5.4956751799075434e-15 -1.0624774987347089e-14
rhumerus 109.93240834249667 24.128279864055063 -55.575743244837625
rradius 59.43846904682575
rwrist -6.809009187381431
rhand -43.75068253953297 21.291203012268802
rfingers 7.125020000000001
rthumb -16.58842937809469 -7.901916812147405
